<?xml version="1.0" encoding="utf-8"?>
<!-- Generator: Adobe Illustrator 16.0.0, SVG Export Plug-In . SVG Version: 6.00 Build 0)  -->
<svg version="1.2" baseProfile="tiny" id="Layer_1" xmlns="http://www.w3.org/2000/svg" xmlns:xlink="http://www.w3.org/1999/xlink"
	 x="0px" y="0px" width="206.667px" height="283.333px" viewBox="0 0 206.667 283.333" xml:space="preserve">
<path stroke="#000000" stroke-width="0.01" d="M77.545,150.912l1.107,0.298l1.972-7.362l-11.221-3.006l-16.173,60.354l0,0
	c-0.408,1.521-1.97,2.423-3.49,2.016c-2.787-0.745-4.527-3.514-3.993-6.349c0.333-1.763,0.575-3.542,0.727-5.33
	c4.386-51.53-8.197-103.084-35.833-146.798c-0.558-0.883-0.854-1.904-0.854-2.948v-2.444c0-3.045,2.469-5.515,5.515-5.515h7.495
	c8.722,0,16.305,5.989,18.326,14.475c2.208,9.276,6.641,17.354,12.308,22.468c5.592,5.044,12.337,7.174,18.818,5.96
	c6.611-1.237,12.914-5.958,17.507-13.14c3.333-5.213,5.767-11.68,7.002-18.622c1.147-6.446,6.752-11.141,13.299-11.141h54.46l0,0
	c3.047,0,5.517,2.47,5.517,5.515v1.416c0,1.678-0.764,3.265-2.076,4.311c-43.13,34.413-74.104,81.734-88.384,135.03l-5.149,19.213
	c-0.646,2.412-2.831,4.089-5.326,4.089h-4.853c-0.25,0-0.498-0.033-0.738-0.098c-1.522-0.407-2.424-1.972-2.016-3.492l12.562-46.882
	l0,0C74.46,151.408,76.024,150.504,77.545,150.912z"/>
<path stroke="#000000" stroke-width="0.01" d="M137.273,140.316l-1.106-0.298l-1.973,7.362l11.222,3.006l16.173-60.354l0,0
	c0.408-1.521,1.97-2.423,3.49-2.016c2.787,0.745,4.527,3.514,3.993,6.349c-0.333,1.763-0.575,3.542-0.728,5.33
	c-4.386,51.53,8.197,103.084,35.834,146.798c0.559,0.883,0.854,1.904,0.854,2.948v2.444c0,3.045-2.469,5.515-5.515,5.515h-7.495
	c-8.722,0-16.305-5.989-18.326-14.475c-2.208-9.276-6.641-17.354-12.308-22.468c-5.593-5.044-12.337-7.174-18.818-5.96
	c-6.611,1.237-12.914,5.958-17.507,13.14c-3.333,5.213-5.768,11.68-7.003,18.622c-1.147,6.446-6.752,11.141-13.299,11.141h-54.46
	l0,0c-3.047,0-5.517-2.47-5.517-5.515v-1.416c0-1.678,0.764-3.265,2.076-4.311c43.13-34.413,74.104-81.734,88.384-135.03
	l5.149-19.213c0.646-2.412,2.831-4.089,5.326-4.089h4.853c0.25,0,0.498,0.033,0.738,0.098c1.521,0.407,2.424,1.972,2.016,3.492
	l-12.562,46.882l0,0C140.358,139.82,138.794,140.723,137.273,140.316z"/>
<g>
</g>
<g>
</g>
<g>
</g>
<g>
</g>
<g>
</g>
<g>
</g>
</svg>
