<?xml version="1.0" encoding="utf-8" standalone="no"?>
<!DOCTYPE svg PUBLIC "-//W3C//DTD SVG 1.1//EN"
  "http://www.w3.org/Graphics/SVG/1.1/DTD/svg11.dtd">
<svg height="83.466142pt" version="1.1" viewBox="0 0 59.314961 83.466142" width="59.314961pt" xmlns="http://www.w3.org/2000/svg" xmlns:xlink="http://www.w3.org/1999/xlink">
 <metadata>
  <rdf:RDF xmlns:cc="http://creativecommons.org/ns#" xmlns:dc="http://purl.org/dc/elements/1.1/" xmlns:rdf="http://www.w3.org/1999/02/22-rdf-syntax-ns#">
   <cc:Work>
    <dc:type rdf:resource="http://purl.org/dc/dcmitype/StillImage"/>
    <dc:date>2021-04-13T10:30:50.460979</dc:date>
    <dc:format>image/svg+xml</dc:format>
    <dc:creator>
     <cc:Agent>
      <dc:title>Matplotlib v3.4.1, https://matplotlib.org/</dc:title>
     </cc:Agent>
    </dc:creator>
   </cc:Work>
  </rdf:RDF>
 </metadata>
 <defs>
  <style type="text/css">*{stroke-linecap:butt;stroke-linejoin:round;}</style>
 </defs>
 <g id="figure_1">
  <g id="axes_1">
   <g id="PathCollection_1">
    <defs>
     <path d="M 2.541473 -16.413973 
Q 7.251294 -16.413973 9.468923 -11.415508 
Q 9.757567 -10.275013 9.820928 -9.042997 
Q 9.820928 -6.466324 7.180893 -2.946278 
L 5.864396 -1.629781 
L 5.927757 -1.629781 
Q 7.554018 -2.242269 9.405562 -2.242269 
L 9.820928 -2.242269 
Q 15.058756 -2.242269 17.170783 2.200029 
Q 17.67767 3.650287 17.67767 4.973825 
Q 17.67767 9.486523 13.08049 11.774553 
Q 12.200478 12.035036 10.637578 12.168798 
Q 5.315269 12.168798 3.0906 6.14248 
L 3.027239 6.14248 
L 3.027239 6.339602 
Q 3.027239 13.88658 4.829503 16.280211 
L 4.829503 16.413973 
L 0.253443 16.413973 
L 0.119682 16.280211 
Q 1.992346 13.464175 1.992346 6.14248 
L 1.992346 6.072079 
L 1.921945 6.072079 
Q -0.274564 12.168798 -5.667274 12.168798 
Q -9.870208 12.168798 -12.108957 7.747621 
Q -12.658084 6.248081 -12.658084 4.973825 
Q -12.658084 -0.151362 -7.251294 -1.981786 
Q -5.793995 -2.242269 -4.674621 -2.242269 
L -4.477498 -2.242269 
Q -2.583714 -2.242269 -0.865931 -1.629781 
L -0.80257 -1.629781 
L -0.80257 -1.693142 
Q -2.654114 -3.256042 -3.287723 -4.769662 
Q -4.61126 -7.191453 -4.61126 -8.972597 
L -4.61126 -9.282361 
Q -4.61126 -13.703538 0.119682 -15.991568 
Q 1.682582 -16.413973 2.541473 -16.413973 
z
" id="md5f703fa99" style="stroke:#ff0000;"/>
    </defs>
    <g clip-path="url(#pa99f90043c)">
     <use style="fill:#ff0000;stroke:#ff0000;" x="29.65748" xlink:href="#md5f703fa99" y="62.599606"/>
    </g>
   </g>
   <g id="patch_1">
    <path clip-path="url(#pa99f90043c)" d="M 10.245311 79.672226 
L 49.069649 79.672226 
Q 57.158053 79.672226 57.158053 34.14524 
L 57.158053 49.320902 
Q 57.158053 3.793916 49.069649 3.793916 
L 10.245311 3.793916 
Q 2.156908 3.793916 2.156908 49.320902 
L 2.156908 34.14524 
Q 2.156908 79.672226 10.245311 79.672226 
z
" style="fill:none;stroke:#ff0000;stroke-linejoin:miter;stroke-width:2;"/>
   </g>
   <g id="patch_2">
    <path clip-path="url(#pa99f90043c)" d="M 0 83.466142 
L 59.314961 83.466142 
L 59.314961 0 
L 0 0 
z
" style="fill:none;stroke:#000000;stroke-linejoin:miter;stroke-width:2;"/>
   </g>
   <g id="text_1">
    <!-- Q -->
    <g style="fill:#ff0000;" transform="translate(15.881699 36.784309)scale(0.35 -0.35)">
     <defs>
      <path d="M 2522 4238 
Q 1834 4238 1429 3725 
Q 1025 3213 1025 2328 
Q 1025 1447 1429 934 
Q 1834 422 2522 422 
Q 3209 422 3611 934 
Q 4013 1447 4013 2328 
Q 4013 3213 3611 3725 
Q 3209 4238 2522 4238 
z
M 3406 84 
L 4238 -825 
L 3475 -825 
L 2784 -78 
Q 2681 -84 2626 -87 
Q 2572 -91 2522 -91 
Q 1538 -91 948 567 
Q 359 1225 359 2328 
Q 359 3434 948 4092 
Q 1538 4750 2522 4750 
Q 3503 4750 4090 4092 
Q 4678 3434 4678 2328 
Q 4678 1516 4351 937 
Q 4025 359 3406 84 
z
" id="DejaVuSans-51" transform="scale(0.015625)"/>
     </defs>
     <use xlink:href="#DejaVuSans-51"/>
    </g>
   </g>
  </g>
 </g>
 <defs>
  <clipPath id="pa99f90043c">
   <rect height="83.466142" width="59.314961" x="0" y="0"/>
  </clipPath>
 </defs>
</svg>
