<?xml version="1.0" encoding="utf-8" standalone="no"?>
<!DOCTYPE svg PUBLIC "-//W3C//DTD SVG 1.1//EN"
  "http://www.w3.org/Graphics/SVG/1.1/DTD/svg11.dtd">
<svg height="83.466142pt" version="1.1" viewBox="0 0 59.314961 83.466142" width="59.314961pt" xmlns="http://www.w3.org/2000/svg" xmlns:xlink="http://www.w3.org/1999/xlink">
 <metadata>
  <rdf:RDF xmlns:cc="http://creativecommons.org/ns#" xmlns:dc="http://purl.org/dc/elements/1.1/" xmlns:rdf="http://www.w3.org/1999/02/22-rdf-syntax-ns#">
   <cc:Work>
    <dc:type rdf:resource="http://purl.org/dc/dcmitype/StillImage"/>
    <dc:date>2021-04-13T10:30:49.945743</dc:date>
    <dc:format>image/svg+xml</dc:format>
    <dc:creator>
     <cc:Agent>
      <dc:title>Matplotlib v3.4.1, https://matplotlib.org/</dc:title>
     </cc:Agent>
    </dc:creator>
   </cc:Work>
  </rdf:RDF>
 </metadata>
 <defs>
  <style type="text/css">*{stroke-linecap:butt;stroke-linejoin:round;}</style>
 </defs>
 <g id="figure_1">
  <g id="axes_1">
   <g id="PathCollection_1">
    <defs>
     <path d="M 2.541473 -16.413973 
Q 7.251294 -16.413973 9.468923 -11.415508 
Q 9.757567 -10.275013 9.820928 -9.042997 
Q 9.820928 -6.466324 7.180893 -2.946278 
L 5.864396 -1.629781 
L 5.927757 -1.629781 
Q 7.554018 -2.242269 9.405562 -2.242269 
L 9.820928 -2.242269 
Q 15.058756 -2.242269 17.170783 2.200029 
Q 17.67767 3.650287 17.67767 4.973825 
Q 17.67767 9.486523 13.08049 11.774553 
Q 12.200478 12.035036 10.637578 12.168798 
Q 5.315269 12.168798 3.0906 6.14248 
L 3.027239 6.14248 
L 3.027239 6.339602 
Q 3.027239 13.88658 4.829503 16.280211 
L 4.829503 16.413973 
L 0.253443 16.413973 
L 0.119682 16.280211 
Q 1.992346 13.464175 1.992346 6.14248 
L 1.992346 6.072079 
L 1.921945 6.072079 
Q -0.274564 12.168798 -5.667274 12.168798 
Q -9.870208 12.168798 -12.108957 7.747621 
Q -12.658084 6.248081 -12.658084 4.973825 
Q -12.658084 -0.151362 -7.251294 -1.981786 
Q -5.793995 -2.242269 -4.674621 -2.242269 
L -4.477498 -2.242269 
Q -2.583714 -2.242269 -0.865931 -1.629781 
L -0.80257 -1.629781 
L -0.80257 -1.693142 
Q -2.654114 -3.256042 -3.287723 -4.769662 
Q -4.61126 -7.191453 -4.61126 -8.972597 
L -4.61126 -9.282361 
Q -4.61126 -13.703538 0.119682 -15.991568 
Q 1.682582 -16.413973 2.541473 -16.413973 
z
" id="m84e5f0acd4" style="stroke:#ff0000;"/>
    </defs>
    <g clip-path="url(#p754e346f37)">
     <use style="fill:#ff0000;stroke:#ff0000;" x="29.65748" xlink:href="#m84e5f0acd4" y="62.599606"/>
    </g>
   </g>
   <g id="patch_1">
    <path clip-path="url(#p754e346f37)" d="M 10.245311 79.672226 
L 49.069649 79.672226 
Q 57.158053 79.672226 57.158053 34.14524 
L 57.158053 49.320902 
Q 57.158053 3.793916 49.069649 3.793916 
L 10.245311 3.793916 
Q 2.156908 3.793916 2.156908 49.320902 
L 2.156908 34.14524 
Q 2.156908 79.672226 10.245311 79.672226 
z
" style="fill:none;stroke:#ff0000;stroke-linejoin:miter;stroke-width:2;"/>
   </g>
   <g id="patch_2">
    <path clip-path="url(#p754e346f37)" d="M 0 83.466142 
L 59.314961 83.466142 
L 59.314961 0 
L 0 0 
z
" style="fill:none;stroke:#000000;stroke-linejoin:miter;stroke-width:2;"/>
   </g>
   <g id="text_1">
    <!-- 6 -->
    <g style="fill:#ff0000;" transform="translate(18.523105 36.784309)scale(0.35 -0.35)">
     <defs>
      <path d="M 2113 2584 
Q 1688 2584 1439 2293 
Q 1191 2003 1191 1497 
Q 1191 994 1439 701 
Q 1688 409 2113 409 
Q 2538 409 2786 701 
Q 3034 994 3034 1497 
Q 3034 2003 2786 2293 
Q 2538 2584 2113 2584 
z
M 3366 4563 
L 3366 3988 
Q 3128 4100 2886 4159 
Q 2644 4219 2406 4219 
Q 1781 4219 1451 3797 
Q 1122 3375 1075 2522 
Q 1259 2794 1537 2939 
Q 1816 3084 2150 3084 
Q 2853 3084 3261 2657 
Q 3669 2231 3669 1497 
Q 3669 778 3244 343 
Q 2819 -91 2113 -91 
Q 1303 -91 875 529 
Q 447 1150 447 2328 
Q 447 3434 972 4092 
Q 1497 4750 2381 4750 
Q 2619 4750 2861 4703 
Q 3103 4656 3366 4563 
z
" id="DejaVuSans-36" transform="scale(0.015625)"/>
     </defs>
     <use xlink:href="#DejaVuSans-36"/>
    </g>
   </g>
  </g>
 </g>
 <defs>
  <clipPath id="p754e346f37">
   <rect height="83.466142" width="59.314961" x="0" y="0"/>
  </clipPath>
 </defs>
</svg>
