<?xml version="1.0" encoding="utf-8" standalone="no"?>
<!DOCTYPE svg PUBLIC "-//W3C//DTD SVG 1.1//EN"
  "http://www.w3.org/Graphics/SVG/1.1/DTD/svg11.dtd">
<!-- Created with matplotlib (https://matplotlib.org/) -->
<svg height="84.906142pt" version="1.1" viewBox="0 0 60.754961 84.906142" width="60.754961pt" xmlns="http://www.w3.org/2000/svg" xmlns:xlink="http://www.w3.org/1999/xlink">
 <metadata>
  <rdf:RDF xmlns:cc="http://creativecommons.org/ns#" xmlns:dc="http://purl.org/dc/elements/1.1/" xmlns:rdf="http://www.w3.org/1999/02/22-rdf-syntax-ns#">
   <cc:Work>
    <dc:type rdf:resource="http://purl.org/dc/dcmitype/StillImage"/>
    <dc:date>2021-04-10T10:36:46.611844</dc:date>
    <dc:format>image/svg+xml</dc:format>
    <dc:creator>
     <cc:Agent>
      <dc:title>Matplotlib v3.3.3, https://matplotlib.org/</dc:title>
     </cc:Agent>
    </dc:creator>
   </cc:Work>
  </rdf:RDF>
 </metadata>
 <defs>
  <style type="text/css">*{stroke-linecap:butt;stroke-linejoin:round;}</style>
 </defs>
 <g id="figure_1">
  <g id="axes_1">
   <g id="PathCollection_1">
    <defs>
     <path d="M 2.541473 -16.413973 
Q 7.251294 -16.413973 9.468923 -11.415508 
Q 9.757567 -10.275013 9.820928 -9.042997 
Q 9.820928 -6.466324 7.180893 -2.946278 
L 5.864396 -1.629781 
L 5.927757 -1.629781 
Q 7.554018 -2.242269 9.405562 -2.242269 
L 9.820928 -2.242269 
Q 15.058756 -2.242269 17.170783 2.200029 
Q 17.67767 3.650287 17.67767 4.973825 
Q 17.67767 9.486523 13.08049 11.774553 
Q 12.200478 12.035036 10.637578 12.168798 
Q 5.315269 12.168798 3.0906 6.14248 
L 3.027239 6.14248 
L 3.027239 6.339602 
Q 3.027239 13.88658 4.829503 16.280211 
L 4.829503 16.413973 
L 0.253443 16.413973 
L 0.119682 16.280211 
Q 1.992346 13.464175 1.992346 6.14248 
L 1.992346 6.072079 
L 1.921945 6.072079 
Q -0.274564 12.168798 -5.667274 12.168798 
Q -9.870208 12.168798 -12.108957 7.747621 
Q -12.658084 6.248081 -12.658084 4.973825 
Q -12.658084 -0.151362 -7.251294 -1.981786 
Q -5.793995 -2.242269 -4.674621 -2.242269 
L -4.477498 -2.242269 
Q -2.583714 -2.242269 -0.865931 -1.629781 
L -0.80257 -1.629781 
L -0.80257 -1.693142 
Q -2.654114 -3.256042 -3.287723 -4.769662 
Q -4.61126 -7.191453 -4.61126 -8.972597 
L -4.61126 -9.282361 
Q -4.61126 -13.703538 0.119682 -15.991568 
Q 1.682582 -16.413973 2.541473 -16.413973 
z
" id="m8cbdd543b4" style="stroke:#ff0000;"/>
    </defs>
    <g clip-path="url(#p3451773602)">
     <use style="fill:#ff0000;stroke:#ff0000;" x="30.37748" xlink:href="#m8cbdd543b4" y="63.319606"/>
    </g>
   </g>
   <g id="patch_1">
    <path clip-path="url(#p3451773602)" d="M 10.965311 80.392226 
L 49.789649 80.392226 
Q 57.878053 80.392226 57.878053 34.86524 
L 57.878053 50.040902 
Q 57.878053 4.513916 49.789649 4.513916 
L 10.965311 4.513916 
Q 2.876908 4.513916 2.876908 50.040902 
L 2.876908 34.86524 
Q 2.876908 80.392226 10.965311 80.392226 
z
" style="fill:none;stroke:#ff0000;stroke-linejoin:miter;stroke-width:2;"/>
   </g>
   <g id="patch_2">
    <path clip-path="url(#p3451773602)" d="M 0.72 84.186142 
L 60.034961 84.186142 
L 60.034961 0.72 
L 0.72 0.72 
z
" style="fill:none;stroke:#000000;stroke-linejoin:miter;stroke-width:2;"/>
   </g>
   <g id="text_1">
    <!-- 10 -->
    <g style="fill:#ff0000;" transform="translate(8.10873 37.504309)scale(0.35 -0.35)">
     <defs>
      <path d="M 12.40625 8.296875 
L 28.515625 8.296875 
L 28.515625 63.921875 
L 10.984375 60.40625 
L 10.984375 69.390625 
L 28.421875 72.90625 
L 38.28125 72.90625 
L 38.28125 8.296875 
L 54.390625 8.296875 
L 54.390625 0 
L 12.40625 0 
z
" id="DejaVuSans-49"/>
      <path d="M 31.78125 66.40625 
Q 24.171875 66.40625 20.328125 58.90625 
Q 16.5 51.421875 16.5 36.375 
Q 16.5 21.390625 20.328125 13.890625 
Q 24.171875 6.390625 31.78125 6.390625 
Q 39.453125 6.390625 43.28125 13.890625 
Q 47.125 21.390625 47.125 36.375 
Q 47.125 51.421875 43.28125 58.90625 
Q 39.453125 66.40625 31.78125 66.40625 
z
M 31.78125 74.21875 
Q 44.046875 74.21875 50.515625 64.515625 
Q 56.984375 54.828125 56.984375 36.375 
Q 56.984375 17.96875 50.515625 8.265625 
Q 44.046875 -1.421875 31.78125 -1.421875 
Q 19.53125 -1.421875 13.0625 8.265625 
Q 6.59375 17.96875 6.59375 36.375 
Q 6.59375 54.828125 13.0625 64.515625 
Q 19.53125 74.21875 31.78125 74.21875 
z
" id="DejaVuSans-48"/>
     </defs>
     <use xlink:href="#DejaVuSans-49"/>
     <use x="63.623047" xlink:href="#DejaVuSans-48"/>
    </g>
   </g>
  </g>
 </g>
 <defs>
  <clipPath id="p3451773602">
   <rect height="83.466142" width="59.314961" x="0.72" y="0.72"/>
  </clipPath>
 </defs>
</svg>
