<?xml version="1.0" encoding="utf-8" standalone="no"?>
<!DOCTYPE svg PUBLIC "-//W3C//DTD SVG 1.1//EN"
  "http://www.w3.org/Graphics/SVG/1.1/DTD/svg11.dtd">
<svg height="83.466142pt" version="1.1" viewBox="0 0 59.314961 83.466142" width="59.314961pt" xmlns="http://www.w3.org/2000/svg" xmlns:xlink="http://www.w3.org/1999/xlink">
 <metadata>
  <rdf:RDF xmlns:cc="http://creativecommons.org/ns#" xmlns:dc="http://purl.org/dc/elements/1.1/" xmlns:rdf="http://www.w3.org/1999/02/22-rdf-syntax-ns#">
   <cc:Work>
    <dc:type rdf:resource="http://purl.org/dc/dcmitype/StillImage"/>
    <dc:date>2021-04-13T10:30:50.644354</dc:date>
    <dc:format>image/svg+xml</dc:format>
    <dc:creator>
     <cc:Agent>
      <dc:title>Matplotlib v3.4.1, https://matplotlib.org/</dc:title>
     </cc:Agent>
    </dc:creator>
   </cc:Work>
  </rdf:RDF>
 </metadata>
 <defs>
  <style type="text/css">*{stroke-linecap:butt;stroke-linejoin:round;}</style>
 </defs>
 <g id="figure_1">
  <g id="axes_1">
   <g id="PathCollection_1">
    <defs>
     <path d="M -0 17.67767 
L 17.67767 0 
L 0 -17.67767 
L -17.67767 -0 
z
" id="m9b17238c79" style="stroke:#ff0000;"/>
    </defs>
    <g clip-path="url(#pe79f3a3233)">
     <use style="fill:#ff0000;stroke:#ff0000;" x="29.65748" xlink:href="#m9b17238c79" y="62.599606"/>
    </g>
   </g>
   <g id="patch_1">
    <path clip-path="url(#pe79f3a3233)" d="M 10.245311 79.672226 
L 49.069649 79.672226 
Q 57.158053 79.672226 57.158053 34.14524 
L 57.158053 49.320902 
Q 57.158053 3.793916 49.069649 3.793916 
L 10.245311 3.793916 
Q 2.156908 3.793916 2.156908 49.320902 
L 2.156908 34.14524 
Q 2.156908 79.672226 10.245311 79.672226 
z
" style="fill:none;stroke:#ff0000;stroke-linejoin:miter;stroke-width:2;"/>
   </g>
   <g id="patch_2">
    <path clip-path="url(#pe79f3a3233)" d="M 0 83.466142 
L 59.314961 83.466142 
L 59.314961 0 
L 0 0 
z
" style="fill:none;stroke:#000000;stroke-linejoin:miter;stroke-width:2;"/>
   </g>
   <g id="text_1">
    <!-- 4 -->
    <g style="fill:#ff0000;" transform="translate(18.523105 36.784309)scale(0.35 -0.35)">
     <defs>
      <path d="M 2419 4116 
L 825 1625 
L 2419 1625 
L 2419 4116 
z
M 2253 4666 
L 3047 4666 
L 3047 1625 
L 3713 1625 
L 3713 1100 
L 3047 1100 
L 3047 0 
L 2419 0 
L 2419 1100 
L 313 1100 
L 313 1709 
L 2253 4666 
z
" id="DejaVuSans-34" transform="scale(0.015625)"/>
     </defs>
     <use xlink:href="#DejaVuSans-34"/>
    </g>
   </g>
  </g>
 </g>
 <defs>
  <clipPath id="pe79f3a3233">
   <rect height="83.466142" width="59.314961" x="0" y="0"/>
  </clipPath>
 </defs>
</svg>
