<?xml version="1.0" encoding="utf-8" standalone="no"?>
<!DOCTYPE svg PUBLIC "-//W3C//DTD SVG 1.1//EN"
  "http://www.w3.org/Graphics/SVG/1.1/DTD/svg11.dtd">
<!-- Created with matplotlib (https://matplotlib.org/) -->
<svg height="84.906142pt" version="1.1" viewBox="0 0 60.754961 84.906142" width="60.754961pt" xmlns="http://www.w3.org/2000/svg" xmlns:xlink="http://www.w3.org/1999/xlink">
 <metadata>
  <rdf:RDF xmlns:cc="http://creativecommons.org/ns#" xmlns:dc="http://purl.org/dc/elements/1.1/" xmlns:rdf="http://www.w3.org/1999/02/22-rdf-syntax-ns#">
   <cc:Work>
    <dc:type rdf:resource="http://purl.org/dc/dcmitype/StillImage"/>
    <dc:date>2021-04-10T10:36:45.265929</dc:date>
    <dc:format>image/svg+xml</dc:format>
    <dc:creator>
     <cc:Agent>
      <dc:title>Matplotlib v3.3.3, https://matplotlib.org/</dc:title>
     </cc:Agent>
    </dc:creator>
   </cc:Work>
  </rdf:RDF>
 </metadata>
 <defs>
  <style type="text/css">*{stroke-linecap:butt;stroke-linejoin:round;}</style>
 </defs>
 <g id="figure_1">
  <g id="axes_1">
   <g id="PathCollection_1">
    <defs>
     <path d="M 2.439499 17.582945 
Q 1.99732 17.582945 1.691196 17.276821 
L -8.921101 7.038676 
Q -9.091169 6.902621 -9.38879 6.596497 
Q -9.686411 6.290373 -10.332672 5.482546 
Q -10.978934 4.674718 -11.48914 3.824374 
Q -11.999347 2.97403 -12.399009 1.766541 
Q -12.798671 0.559052 -12.798671 -0.580409 
Q -12.798671 -4.321924 -10.638796 -6.430778 
Q -8.478922 -8.539632 -4.669379 -8.539632 
Q -3.614952 -8.539632 -2.518008 -8.173984 
Q -1.421064 -7.808336 -0.477182 -7.187585 
Q 0.466701 -6.566833 1.146976 -6.022613 
Q 1.827252 -5.478393 2.439499 -4.866145 
Q 3.051747 -5.478393 3.732023 -6.022613 
Q 4.412298 -6.566833 5.35618 -7.187585 
Q 6.300063 -7.808336 7.397007 -8.173984 
Q 8.493951 -8.539632 9.548378 -8.539632 
Q 13.35792 -8.539632 15.517795 -6.430778 
Q 17.67767 -4.321924 17.67767 -0.580409 
Q 17.67767 3.178112 13.783093 7.072689 
L 3.187802 17.276821 
Q 2.881678 17.582945 2.439499 17.582945 
" id="me82f5d210d" style="stroke:#ff0000;"/>
    </defs>
    <g clip-path="url(#pf3d54aec03)">
     <use style="fill:#ff0000;stroke:#ff0000;" x="30.37748" xlink:href="#me82f5d210d" y="63.319606"/>
    </g>
   </g>
   <g id="patch_1">
    <path clip-path="url(#pf3d54aec03)" d="M 10.965311 80.392226 
L 49.789649 80.392226 
Q 57.878053 80.392226 57.878053 34.86524 
L 57.878053 50.040902 
Q 57.878053 4.513916 49.789649 4.513916 
L 10.965311 4.513916 
Q 2.876908 4.513916 2.876908 50.040902 
L 2.876908 34.86524 
Q 2.876908 80.392226 10.965311 80.392226 
z
" style="fill:none;stroke:#ff0000;stroke-linejoin:miter;stroke-width:2;"/>
   </g>
   <g id="patch_2">
    <path clip-path="url(#pf3d54aec03)" d="M 0.72 84.186142 
L 60.034961 84.186142 
L 60.034961 0.72 
L 0.72 0.72 
z
" style="fill:none;stroke:#000000;stroke-linejoin:miter;stroke-width:2;"/>
   </g>
   <g id="text_1">
    <!-- 8 -->
    <g style="fill:#ff0000;" transform="translate(19.243105 37.504309)scale(0.35 -0.35)">
     <defs>
      <path d="M 31.78125 34.625 
Q 24.75 34.625 20.71875 30.859375 
Q 16.703125 27.09375 16.703125 20.515625 
Q 16.703125 13.921875 20.71875 10.15625 
Q 24.75 6.390625 31.78125 6.390625 
Q 38.8125 6.390625 42.859375 10.171875 
Q 46.921875 13.96875 46.921875 20.515625 
Q 46.921875 27.09375 42.890625 30.859375 
Q 38.875 34.625 31.78125 34.625 
z
M 21.921875 38.8125 
Q 15.578125 40.375 12.03125 44.71875 
Q 8.5 49.078125 8.5 55.328125 
Q 8.5 64.0625 14.71875 69.140625 
Q 20.953125 74.21875 31.78125 74.21875 
Q 42.671875 74.21875 48.875 69.140625 
Q 55.078125 64.0625 55.078125 55.328125 
Q 55.078125 49.078125 51.53125 44.71875 
Q 48 40.375 41.703125 38.8125 
Q 48.828125 37.15625 52.796875 32.3125 
Q 56.78125 27.484375 56.78125 20.515625 
Q 56.78125 9.90625 50.3125 4.234375 
Q 43.84375 -1.421875 31.78125 -1.421875 
Q 19.734375 -1.421875 13.25 4.234375 
Q 6.78125 9.90625 6.78125 20.515625 
Q 6.78125 27.484375 10.78125 32.3125 
Q 14.796875 37.15625 21.921875 38.8125 
z
M 18.3125 54.390625 
Q 18.3125 48.734375 21.84375 45.5625 
Q 25.390625 42.390625 31.78125 42.390625 
Q 38.140625 42.390625 41.71875 45.5625 
Q 45.3125 48.734375 45.3125 54.390625 
Q 45.3125 60.0625 41.71875 63.234375 
Q 38.140625 66.40625 31.78125 66.40625 
Q 25.390625 66.40625 21.84375 63.234375 
Q 18.3125 60.0625 18.3125 54.390625 
z
" id="DejaVuSans-56"/>
     </defs>
     <use xlink:href="#DejaVuSans-56"/>
    </g>
   </g>
  </g>
 </g>
 <defs>
  <clipPath id="pf3d54aec03">
   <rect height="83.466142" width="59.314961" x="0.72" y="0.72"/>
  </clipPath>
 </defs>
</svg>
