<?xml version="1.0" encoding="utf-8" standalone="no"?>
<!DOCTYPE svg PUBLIC "-//W3C//DTD SVG 1.1//EN"
  "http://www.w3.org/Graphics/SVG/1.1/DTD/svg11.dtd">
<svg height="83.466142pt" version="1.1" viewBox="0 0 59.314961 83.466142" width="59.314961pt" xmlns="http://www.w3.org/2000/svg" xmlns:xlink="http://www.w3.org/1999/xlink">
 <metadata>
  <rdf:RDF xmlns:cc="http://creativecommons.org/ns#" xmlns:dc="http://purl.org/dc/elements/1.1/" xmlns:rdf="http://www.w3.org/1999/02/22-rdf-syntax-ns#">
   <cc:Work>
    <dc:type rdf:resource="http://purl.org/dc/dcmitype/StillImage"/>
    <dc:date>2021-04-13T10:30:48.907390</dc:date>
    <dc:format>image/svg+xml</dc:format>
    <dc:creator>
     <cc:Agent>
      <dc:title>Matplotlib v3.4.1, https://matplotlib.org/</dc:title>
     </cc:Agent>
    </dc:creator>
   </cc:Work>
  </rdf:RDF>
 </metadata>
 <defs>
  <style type="text/css">*{stroke-linecap:butt;stroke-linejoin:round;}</style>
 </defs>
 <g id="figure_1">
  <g id="axes_1">
   <g id="PathCollection_1">
    <defs>
     <path d="M 2.439499 17.582945 
Q 1.99732 17.582945 1.691196 17.276821 
L -8.921101 7.038676 
Q -9.091169 6.902621 -9.38879 6.596497 
Q -9.686411 6.290373 -10.332672 5.482546 
Q -10.978934 4.674718 -11.48914 3.824374 
Q -11.999347 2.97403 -12.399009 1.766541 
Q -12.798671 0.559052 -12.798671 -0.580409 
Q -12.798671 -4.321924 -10.638796 -6.430778 
Q -8.478922 -8.539632 -4.669379 -8.539632 
Q -3.614952 -8.539632 -2.518008 -8.173984 
Q -1.421064 -7.808336 -0.477182 -7.187585 
Q 0.466701 -6.566833 1.146976 -6.022613 
Q 1.827252 -5.478393 2.439499 -4.866145 
Q 3.051747 -5.478393 3.732023 -6.022613 
Q 4.412298 -6.566833 5.35618 -7.187585 
Q 6.300063 -7.808336 7.397007 -8.173984 
Q 8.493951 -8.539632 9.548378 -8.539632 
Q 13.35792 -8.539632 15.517795 -6.430778 
Q 17.67767 -4.321924 17.67767 -0.580409 
Q 17.67767 3.178112 13.783093 7.072689 
L 3.187802 17.276821 
Q 2.881678 17.582945 2.439499 17.582945 
" id="mc6928d3b59" style="stroke:#ff0000;"/>
    </defs>
    <g clip-path="url(#pdc6d49dcfb)">
     <use style="fill:#ff0000;stroke:#ff0000;" x="29.65748" xlink:href="#mc6928d3b59" y="62.599606"/>
    </g>
   </g>
   <g id="patch_1">
    <path clip-path="url(#pdc6d49dcfb)" d="M 10.245311 79.672226 
L 49.069649 79.672226 
Q 57.158053 79.672226 57.158053 34.14524 
L 57.158053 49.320902 
Q 57.158053 3.793916 49.069649 3.793916 
L 10.245311 3.793916 
Q 2.156908 3.793916 2.156908 49.320902 
L 2.156908 34.14524 
Q 2.156908 79.672226 10.245311 79.672226 
z
" style="fill:none;stroke:#ff0000;stroke-linejoin:miter;stroke-width:2;"/>
   </g>
   <g id="patch_2">
    <path clip-path="url(#pdc6d49dcfb)" d="M 0 83.466142 
L 59.314961 83.466142 
L 59.314961 0 
L 0 0 
z
" style="fill:none;stroke:#000000;stroke-linejoin:miter;stroke-width:2;"/>
   </g>
   <g id="text_1">
    <!-- Q -->
    <g style="fill:#ff0000;" transform="translate(15.881699 36.784309)scale(0.35 -0.35)">
     <defs>
      <path d="M 2522 4238 
Q 1834 4238 1429 3725 
Q 1025 3213 1025 2328 
Q 1025 1447 1429 934 
Q 1834 422 2522 422 
Q 3209 422 3611 934 
Q 4013 1447 4013 2328 
Q 4013 3213 3611 3725 
Q 3209 4238 2522 4238 
z
M 3406 84 
L 4238 -825 
L 3475 -825 
L 2784 -78 
Q 2681 -84 2626 -87 
Q 2572 -91 2522 -91 
Q 1538 -91 948 567 
Q 359 1225 359 2328 
Q 359 3434 948 4092 
Q 1538 4750 2522 4750 
Q 3503 4750 4090 4092 
Q 4678 3434 4678 2328 
Q 4678 1516 4351 937 
Q 4025 359 3406 84 
z
" id="DejaVuSans-51" transform="scale(0.015625)"/>
     </defs>
     <use xlink:href="#DejaVuSans-51"/>
    </g>
   </g>
  </g>
 </g>
 <defs>
  <clipPath id="pdc6d49dcfb">
   <rect height="83.466142" width="59.314961" x="0" y="0"/>
  </clipPath>
 </defs>
</svg>
