<?xml version="1.0" encoding="utf-8" standalone="no"?>
<!DOCTYPE svg PUBLIC "-//W3C//DTD SVG 1.1//EN"
  "http://www.w3.org/Graphics/SVG/1.1/DTD/svg11.dtd">
<!-- Created with matplotlib (https://matplotlib.org/) -->
<svg height="84.906142pt" version="1.1" viewBox="0 0 60.754961 84.906142" width="60.754961pt" xmlns="http://www.w3.org/2000/svg" xmlns:xlink="http://www.w3.org/1999/xlink">
 <metadata>
  <rdf:RDF xmlns:cc="http://creativecommons.org/ns#" xmlns:dc="http://purl.org/dc/elements/1.1/" xmlns:rdf="http://www.w3.org/1999/02/22-rdf-syntax-ns#">
   <cc:Work>
    <dc:type rdf:resource="http://purl.org/dc/dcmitype/StillImage"/>
    <dc:date>2021-04-10T10:36:45.389502</dc:date>
    <dc:format>image/svg+xml</dc:format>
    <dc:creator>
     <cc:Agent>
      <dc:title>Matplotlib v3.3.3, https://matplotlib.org/</dc:title>
     </cc:Agent>
    </dc:creator>
   </cc:Work>
  </rdf:RDF>
 </metadata>
 <defs>
  <style type="text/css">*{stroke-linecap:butt;stroke-linejoin:round;}</style>
 </defs>
 <g id="figure_1">
  <g id="axes_1">
   <g id="PathCollection_1">
    <defs>
     <path d="M 2.439499 17.582945 
Q 1.99732 17.582945 1.691196 17.276821 
L -8.921101 7.038676 
Q -9.091169 6.902621 -9.38879 6.596497 
Q -9.686411 6.290373 -10.332672 5.482546 
Q -10.978934 4.674718 -11.48914 3.824374 
Q -11.999347 2.97403 -12.399009 1.766541 
Q -12.798671 0.559052 -12.798671 -0.580409 
Q -12.798671 -4.321924 -10.638796 -6.430778 
Q -8.478922 -8.539632 -4.669379 -8.539632 
Q -3.614952 -8.539632 -2.518008 -8.173984 
Q -1.421064 -7.808336 -0.477182 -7.187585 
Q 0.466701 -6.566833 1.146976 -6.022613 
Q 1.827252 -5.478393 2.439499 -4.866145 
Q 3.051747 -5.478393 3.732023 -6.022613 
Q 4.412298 -6.566833 5.35618 -7.187585 
Q 6.300063 -7.808336 7.397007 -8.173984 
Q 8.493951 -8.539632 9.548378 -8.539632 
Q 13.35792 -8.539632 15.517795 -6.430778 
Q 17.67767 -4.321924 17.67767 -0.580409 
Q 17.67767 3.178112 13.783093 7.072689 
L 3.187802 17.276821 
Q 2.881678 17.582945 2.439499 17.582945 
" id="m6bd3755622" style="stroke:#ff0000;"/>
    </defs>
    <g clip-path="url(#p13d28b5e8c)">
     <use style="fill:#ff0000;stroke:#ff0000;" x="30.37748" xlink:href="#m6bd3755622" y="63.319606"/>
    </g>
   </g>
   <g id="patch_1">
    <path clip-path="url(#p13d28b5e8c)" d="M 10.965311 80.392226 
L 49.789649 80.392226 
Q 57.878053 80.392226 57.878053 34.86524 
L 57.878053 50.040902 
Q 57.878053 4.513916 49.789649 4.513916 
L 10.965311 4.513916 
Q 2.876908 4.513916 2.876908 50.040902 
L 2.876908 34.86524 
Q 2.876908 80.392226 10.965311 80.392226 
z
" style="fill:none;stroke:#ff0000;stroke-linejoin:miter;stroke-width:2;"/>
   </g>
   <g id="patch_2">
    <path clip-path="url(#p13d28b5e8c)" d="M 0.72 84.186142 
L 60.034961 84.186142 
L 60.034961 0.72 
L 0.72 0.72 
z
" style="fill:none;stroke:#000000;stroke-linejoin:miter;stroke-width:2;"/>
   </g>
   <g id="text_1">
    <!-- 10 -->
    <g style="fill:#ff0000;" transform="translate(8.10873 37.504309)scale(0.35 -0.35)">
     <defs>
      <path d="M 12.40625 8.296875 
L 28.515625 8.296875 
L 28.515625 63.921875 
L 10.984375 60.40625 
L 10.984375 69.390625 
L 28.421875 72.90625 
L 38.28125 72.90625 
L 38.28125 8.296875 
L 54.390625 8.296875 
L 54.390625 0 
L 12.40625 0 
z
" id="DejaVuSans-49"/>
      <path d="M 31.78125 66.40625 
Q 24.171875 66.40625 20.328125 58.90625 
Q 16.5 51.421875 16.5 36.375 
Q 16.5 21.390625 20.328125 13.890625 
Q 24.171875 6.390625 31.78125 6.390625 
Q 39.453125 6.390625 43.28125 13.890625 
Q 47.125 21.390625 47.125 36.375 
Q 47.125 51.421875 43.28125 58.90625 
Q 39.453125 66.40625 31.78125 66.40625 
z
M 31.78125 74.21875 
Q 44.046875 74.21875 50.515625 64.515625 
Q 56.984375 54.828125 56.984375 36.375 
Q 56.984375 17.96875 50.515625 8.265625 
Q 44.046875 -1.421875 31.78125 -1.421875 
Q 19.53125 -1.421875 13.0625 8.265625 
Q 6.59375 17.96875 6.59375 36.375 
Q 6.59375 54.828125 13.0625 64.515625 
Q 19.53125 74.21875 31.78125 74.21875 
z
" id="DejaVuSans-48"/>
     </defs>
     <use xlink:href="#DejaVuSans-49"/>
     <use x="63.623047" xlink:href="#DejaVuSans-48"/>
    </g>
   </g>
  </g>
 </g>
 <defs>
  <clipPath id="p13d28b5e8c">
   <rect height="83.466142" width="59.314961" x="0.72" y="0.72"/>
  </clipPath>
 </defs>
</svg>
