<?xml version="1.0" encoding="utf-8" standalone="no"?>
<!DOCTYPE svg PUBLIC "-//W3C//DTD SVG 1.1//EN"
  "http://www.w3.org/Graphics/SVG/1.1/DTD/svg11.dtd">
<!-- Created with matplotlib (https://matplotlib.org/) -->
<svg height="84.906142pt" version="1.1" viewBox="0 0 60.754961 84.906142" width="60.754961pt" xmlns="http://www.w3.org/2000/svg" xmlns:xlink="http://www.w3.org/1999/xlink">
 <metadata>
  <rdf:RDF xmlns:cc="http://creativecommons.org/ns#" xmlns:dc="http://purl.org/dc/elements/1.1/" xmlns:rdf="http://www.w3.org/1999/02/22-rdf-syntax-ns#">
   <cc:Work>
    <dc:type rdf:resource="http://purl.org/dc/dcmitype/StillImage"/>
    <dc:date>2021-04-10T10:36:47.419448</dc:date>
    <dc:format>image/svg+xml</dc:format>
    <dc:creator>
     <cc:Agent>
      <dc:title>Matplotlib v3.3.3, https://matplotlib.org/</dc:title>
     </cc:Agent>
    </dc:creator>
   </cc:Work>
  </rdf:RDF>
 </metadata>
 <defs>
  <style type="text/css">*{stroke-linecap:butt;stroke-linejoin:round;}</style>
 </defs>
 <g id="figure_1">
  <g id="axes_1">
   <g id="PathCollection_1">
    <defs>
     <path d="M -1.774694 -5.637458 
Q -3.06778 -4.687436 -3.707725 -3.757206 
Q -4.347671 -2.833573 -4.347671 -1.883551 
Q -4.347671 -0.319973 -2.91604 1.052282 
Q -1.48441 2.424536 3.668141 5.208629 
Q 4.967824 4.278398 5.60777 3.341571 
Q 6.247715 2.404744 6.247715 1.454721 
Q 6.247715 -0.089065 4.769903 -1.487708 
Q 3.298688 -2.892949 -1.774694 -5.637458 
z
M 7.507814 -16.483544 
L 7.507814 -13.09909 
Q 5.792496 -13.90397 4.314684 -14.30641 
Q 2.843469 -14.70885 1.688928 -14.70885 
Q -0.310077 -14.70885 -1.425033 -13.884178 
Q -2.533392 -13.059506 -2.533392 -11.594889 
Q -2.533392 -9.741026 1.715318 -7.372568 
Q 2.249705 -7.062491 2.53999 -6.897557 
Q 6.887661 -4.443333 8.233525 -2.853365 
Q 9.585988 -1.269995 9.585988 0.814776 
Q 9.585988 2.668639 8.635965 4.113464 
Q 7.692541 5.558289 5.772704 6.646857 
Q 7.052595 7.722229 7.639762 8.85038 
Q 8.226928 9.971934 8.226928 11.291409 
Q 8.226928 14.214047 6.122365 15.94256 
Q 4.024399 17.67767 0.455219 17.67767 
Q -1.048983 17.67767 -2.63895 17.380788 
Q -4.222321 17.083906 -6.036599 16.483544 
L -6.036599 13.105688 
Q -4.24871 13.910568 -2.724716 14.30641 
Q -1.194125 14.70885 0 14.70885 
Q 2.104563 14.70885 3.265701 13.844594 
Q 4.433437 12.980338 4.433437 11.410162 
Q 4.433437 9.312197 -0.12535 6.772207 
L -0.639945 6.481922 
Q -5.046993 4.007906 -6.366468 2.431133 
Q -7.685943 0.85436 -7.685943 -1.243605 
Q -7.685943 -3.123858 -6.729324 -4.595073 
Q -5.772704 -6.072885 -3.892452 -7.082283 
Q -5.112967 -7.986124 -5.719925 -9.140665 
Q -6.326884 -10.295206 -6.326884 -11.720239 
Q -6.326884 -14.398774 -4.268502 -16.034923 
Q -2.203524 -17.67767 1.220515 -17.67767 
Q 2.724716 -17.67767 4.301489 -17.37419 
Q 5.878262 -17.077308 7.507814 -16.483544 
z
" id="m75b8e8c515" style="stroke:#ff0000;"/>
    </defs>
    <g clip-path="url(#pa1aff7746b)">
     <use style="fill:#ff0000;stroke:#ff0000;" x="30.37748" xlink:href="#m75b8e8c515" y="63.319606"/>
    </g>
   </g>
   <g id="patch_1">
    <path clip-path="url(#pa1aff7746b)" d="M 10.965311 80.392226 
L 49.789649 80.392226 
Q 57.878053 80.392226 57.878053 34.86524 
L 57.878053 50.040902 
Q 57.878053 4.513916 49.789649 4.513916 
L 10.965311 4.513916 
Q 2.876908 4.513916 2.876908 50.040902 
L 2.876908 34.86524 
Q 2.876908 80.392226 10.965311 80.392226 
z
" style="fill:none;stroke:#ff0000;stroke-linejoin:miter;stroke-width:2;"/>
   </g>
   <g id="patch_2">
    <path clip-path="url(#pa1aff7746b)" d="M 0.72 84.186142 
L 60.034961 84.186142 
L 60.034961 0.72 
L 0.72 0.72 
z
" style="fill:none;stroke:#000000;stroke-linejoin:miter;stroke-width:2;"/>
   </g>
  </g>
 </g>
 <defs>
  <clipPath id="pa1aff7746b">
   <rect height="83.466142" width="59.314961" x="0.72" y="0.72"/>
  </clipPath>
 </defs>
</svg>
