<?xml version="1.0" encoding="utf-8" standalone="no"?>
<!DOCTYPE svg PUBLIC "-//W3C//DTD SVG 1.1//EN"
  "http://www.w3.org/Graphics/SVG/1.1/DTD/svg11.dtd">
<svg height="83.466142pt" version="1.1" viewBox="0 0 59.314961 83.466142" width="59.314961pt" xmlns="http://www.w3.org/2000/svg" xmlns:xlink="http://www.w3.org/1999/xlink">
 <metadata>
  <rdf:RDF xmlns:cc="http://creativecommons.org/ns#" xmlns:dc="http://purl.org/dc/elements/1.1/" xmlns:rdf="http://www.w3.org/1999/02/22-rdf-syntax-ns#">
   <cc:Work>
    <dc:type rdf:resource="http://purl.org/dc/dcmitype/StillImage"/>
    <dc:date>2021-04-13T10:30:47.590044</dc:date>
    <dc:format>image/svg+xml</dc:format>
    <dc:creator>
     <cc:Agent>
      <dc:title>Matplotlib v3.4.1, https://matplotlib.org/</dc:title>
     </cc:Agent>
    </dc:creator>
   </cc:Work>
  </rdf:RDF>
 </metadata>
 <defs>
  <style type="text/css">*{stroke-linecap:butt;stroke-linejoin:round;}</style>
 </defs>
 <g id="figure_1">
  <g id="axes_1">
   <g id="PathCollection_1">
    <defs>
     <path d="M 3.834838 -17.445709 
Q 6.034726 -13.539785 11.085489 -7.082292 
Q 16.622621 -0.579902 16.764791 0.752002 
Q 17.67767 2.734894 17.67767 4.605547 
L 17.67767 5.540874 
Q 17.67767 9.446797 13.891468 11.69158 
Q 12.649355 12.207881 11.152832 12.207881 
Q 7.553696 12.207881 5.331361 7.037396 
L 4.351139 7.037396 
L 4.351139 7.321735 
Q 4.351139 13.936364 6.289135 17.445709 
L 1.26082 17.445709 
L 1.26082 17.303539 
Q 3.251195 13.771746 3.251195 7.112222 
L 3.183851 7.037396 
L 2.29342 7.037396 
L 1.193477 9.095114 
Q -0.796898 12.207881 -3.767495 12.207881 
Q -8.13734 12.207881 -9.910719 7.321735 
L -10.127715 5.6157 
L -10.127715 4.538204 
Q -10.127715 0.25815 -5.750387 -4.485826 
Q 1.612503 -13.517338 3.692669 -17.370882 
L 3.767495 -17.445709 
L 3.834838 -17.445709 
z
" id="m2cd816798d" style="stroke:#ff0000;"/>
    </defs>
    <g clip-path="url(#p20858d0702)">
     <use style="fill:#ff0000;stroke:#ff0000;" x="29.65748" xlink:href="#m2cd816798d" y="62.599606"/>
    </g>
   </g>
   <g id="patch_1">
    <path clip-path="url(#p20858d0702)" d="M 10.245311 79.672226 
L 49.069649 79.672226 
Q 57.158053 79.672226 57.158053 34.14524 
L 57.158053 49.320902 
Q 57.158053 3.793916 49.069649 3.793916 
L 10.245311 3.793916 
Q 2.156908 3.793916 2.156908 49.320902 
L 2.156908 34.14524 
Q 2.156908 79.672226 10.245311 79.672226 
z
" style="fill:none;stroke:#ff0000;stroke-linejoin:miter;stroke-width:2;"/>
   </g>
   <g id="patch_2">
    <path clip-path="url(#p20858d0702)" d="M 0 83.466142 
L 59.314961 83.466142 
L 59.314961 0 
L 0 0 
z
" style="fill:none;stroke:#000000;stroke-linejoin:miter;stroke-width:2;"/>
   </g>
   <g id="text_1">
    <!-- 5 -->
    <g style="fill:#ff0000;" transform="translate(18.523105 36.784309)scale(0.35 -0.35)">
     <defs>
      <path d="M 691 4666 
L 3169 4666 
L 3169 4134 
L 1269 4134 
L 1269 2991 
Q 1406 3038 1543 3061 
Q 1681 3084 1819 3084 
Q 2600 3084 3056 2656 
Q 3513 2228 3513 1497 
Q 3513 744 3044 326 
Q 2575 -91 1722 -91 
Q 1428 -91 1123 -41 
Q 819 9 494 109 
L 494 744 
Q 775 591 1075 516 
Q 1375 441 1709 441 
Q 2250 441 2565 725 
Q 2881 1009 2881 1497 
Q 2881 1984 2565 2268 
Q 2250 2553 1709 2553 
Q 1456 2553 1204 2497 
Q 953 2441 691 2322 
L 691 4666 
z
" id="DejaVuSans-35" transform="scale(0.015625)"/>
     </defs>
     <use xlink:href="#DejaVuSans-35"/>
    </g>
   </g>
  </g>
 </g>
 <defs>
  <clipPath id="p20858d0702">
   <rect height="83.466142" width="59.314961" x="0" y="0"/>
  </clipPath>
 </defs>
</svg>
