<?xml version="1.0" encoding="utf-8" standalone="no"?>
<!DOCTYPE svg PUBLIC "-//W3C//DTD SVG 1.1//EN"
  "http://www.w3.org/Graphics/SVG/1.1/DTD/svg11.dtd">
<!-- Created with matplotlib (https://matplotlib.org/) -->
<svg height="84.906142pt" version="1.1" viewBox="0 0 60.754961 84.906142" width="60.754961pt" xmlns="http://www.w3.org/2000/svg" xmlns:xlink="http://www.w3.org/1999/xlink">
 <metadata>
  <rdf:RDF xmlns:cc="http://creativecommons.org/ns#" xmlns:dc="http://purl.org/dc/elements/1.1/" xmlns:rdf="http://www.w3.org/1999/02/22-rdf-syntax-ns#">
   <cc:Work>
    <dc:type rdf:resource="http://purl.org/dc/dcmitype/StillImage"/>
    <dc:date>2021-04-10T10:36:44.766918</dc:date>
    <dc:format>image/svg+xml</dc:format>
    <dc:creator>
     <cc:Agent>
      <dc:title>Matplotlib v3.3.3, https://matplotlib.org/</dc:title>
     </cc:Agent>
    </dc:creator>
   </cc:Work>
  </rdf:RDF>
 </metadata>
 <defs>
  <style type="text/css">*{stroke-linecap:butt;stroke-linejoin:round;}</style>
 </defs>
 <g id="figure_1">
  <g id="axes_1">
   <g id="PathCollection_1">
    <defs>
     <path d="M 3.834838 -17.445709 
Q 6.034726 -13.539785 11.085489 -7.082292 
Q 16.622621 -0.579902 16.764791 0.752002 
Q 17.67767 2.734894 17.67767 4.605547 
L 17.67767 5.540874 
Q 17.67767 9.446797 13.891468 11.69158 
Q 12.649355 12.207881 11.152832 12.207881 
Q 7.553696 12.207881 5.331361 7.037396 
L 4.351139 7.037396 
L 4.351139 7.321735 
Q 4.351139 13.936364 6.289135 17.445709 
L 1.26082 17.445709 
L 1.26082 17.303539 
Q 3.251195 13.771746 3.251195 7.112222 
L 3.183851 7.037396 
L 2.29342 7.037396 
L 1.193477 9.095114 
Q -0.796898 12.207881 -3.767495 12.207881 
Q -8.13734 12.207881 -9.910719 7.321735 
L -10.127715 5.6157 
L -10.127715 4.538204 
Q -10.127715 0.25815 -5.750387 -4.485826 
Q 1.612503 -13.517338 3.692669 -17.370882 
L 3.767495 -17.445709 
z
" id="ma4f5a7e573" style="stroke:#ff0000;"/>
    </defs>
    <g clip-path="url(#pe1b67be359)">
     <use style="fill:#ff0000;stroke:#ff0000;" x="30.37748" xlink:href="#ma4f5a7e573" y="63.319606"/>
    </g>
   </g>
   <g id="patch_1">
    <path clip-path="url(#pe1b67be359)" d="M 10.965311 80.392226 
L 49.789649 80.392226 
Q 57.878053 80.392226 57.878053 34.86524 
L 57.878053 50.040902 
Q 57.878053 4.513916 49.789649 4.513916 
L 10.965311 4.513916 
Q 2.876908 4.513916 2.876908 50.040902 
L 2.876908 34.86524 
Q 2.876908 80.392226 10.965311 80.392226 
z
" style="fill:none;stroke:#ff0000;stroke-linejoin:miter;stroke-width:2;"/>
   </g>
   <g id="patch_2">
    <path clip-path="url(#pe1b67be359)" d="M 0.72 84.186142 
L 60.034961 84.186142 
L 60.034961 0.72 
L 0.72 0.72 
z
" style="fill:none;stroke:#000000;stroke-linejoin:miter;stroke-width:2;"/>
   </g>
   <g id="text_1">
    <!-- Q -->
    <g style="fill:#ff0000;" transform="translate(16.601699 37.504309)scale(0.35 -0.35)">
     <defs>
      <path d="M 39.40625 66.21875 
Q 28.65625 66.21875 22.328125 58.203125 
Q 16.015625 50.203125 16.015625 36.375 
Q 16.015625 22.609375 22.328125 14.59375 
Q 28.65625 6.59375 39.40625 6.59375 
Q 50.140625 6.59375 56.421875 14.59375 
Q 62.703125 22.609375 62.703125 36.375 
Q 62.703125 50.203125 56.421875 58.203125 
Q 50.140625 66.21875 39.40625 66.21875 
z
M 53.21875 1.3125 
L 66.21875 -12.890625 
L 54.296875 -12.890625 
L 43.5 -1.21875 
Q 41.890625 -1.3125 41.03125 -1.359375 
Q 40.1875 -1.421875 39.40625 -1.421875 
Q 24.03125 -1.421875 14.8125 8.859375 
Q 5.609375 19.140625 5.609375 36.375 
Q 5.609375 53.65625 14.8125 63.9375 
Q 24.03125 74.21875 39.40625 74.21875 
Q 54.734375 74.21875 63.90625 63.9375 
Q 73.09375 53.65625 73.09375 36.375 
Q 73.09375 23.6875 67.984375 14.640625 
Q 62.890625 5.609375 53.21875 1.3125 
z
" id="DejaVuSans-81"/>
     </defs>
     <use xlink:href="#DejaVuSans-81"/>
    </g>
   </g>
  </g>
 </g>
 <defs>
  <clipPath id="pe1b67be359">
   <rect height="83.466142" width="59.314961" x="0.72" y="0.72"/>
  </clipPath>
 </defs>
</svg>
