<?xml version="1.0" encoding="utf-8" standalone="no"?>
<!DOCTYPE svg PUBLIC "-//W3C//DTD SVG 1.1//EN"
  "http://www.w3.org/Graphics/SVG/1.1/DTD/svg11.dtd">
<!-- Created with matplotlib (https://matplotlib.org/) -->
<svg height="84.906142pt" version="1.1" viewBox="0 0 60.754961 84.906142" width="60.754961pt" xmlns="http://www.w3.org/2000/svg" xmlns:xlink="http://www.w3.org/1999/xlink">
 <metadata>
  <rdf:RDF xmlns:cc="http://creativecommons.org/ns#" xmlns:dc="http://purl.org/dc/elements/1.1/" xmlns:rdf="http://www.w3.org/1999/02/22-rdf-syntax-ns#">
   <cc:Work>
    <dc:type rdf:resource="http://purl.org/dc/dcmitype/StillImage"/>
    <dc:date>2021-04-10T10:36:44.601324</dc:date>
    <dc:format>image/svg+xml</dc:format>
    <dc:creator>
     <cc:Agent>
      <dc:title>Matplotlib v3.3.3, https://matplotlib.org/</dc:title>
     </cc:Agent>
    </dc:creator>
   </cc:Work>
  </rdf:RDF>
 </metadata>
 <defs>
  <style type="text/css">*{stroke-linecap:butt;stroke-linejoin:round;}</style>
 </defs>
 <g id="figure_1">
  <g id="axes_1">
   <g id="PathCollection_1">
    <defs>
     <path d="M 3.834838 -17.445709 
Q 6.034726 -13.539785 11.085489 -7.082292 
Q 16.622621 -0.579902 16.764791 0.752002 
Q 17.67767 2.734894 17.67767 4.605547 
L 17.67767 5.540874 
Q 17.67767 9.446797 13.891468 11.69158 
Q 12.649355 12.207881 11.152832 12.207881 
Q 7.553696 12.207881 5.331361 7.037396 
L 4.351139 7.037396 
L 4.351139 7.321735 
Q 4.351139 13.936364 6.289135 17.445709 
L 1.26082 17.445709 
L 1.26082 17.303539 
Q 3.251195 13.771746 3.251195 7.112222 
L 3.183851 7.037396 
L 2.29342 7.037396 
L 1.193477 9.095114 
Q -0.796898 12.207881 -3.767495 12.207881 
Q -8.13734 12.207881 -9.910719 7.321735 
L -10.127715 5.6157 
L -10.127715 4.538204 
Q -10.127715 0.25815 -5.750387 -4.485826 
Q 1.612503 -13.517338 3.692669 -17.370882 
L 3.767495 -17.445709 
z
" id="mcc14853e9b" style="stroke:#ff0000;"/>
    </defs>
    <g clip-path="url(#pd18ec53d62)">
     <use style="fill:#ff0000;stroke:#ff0000;" x="30.37748" xlink:href="#mcc14853e9b" y="63.319606"/>
    </g>
   </g>
   <g id="patch_1">
    <path clip-path="url(#pd18ec53d62)" d="M 10.965311 80.392226 
L 49.789649 80.392226 
Q 57.878053 80.392226 57.878053 34.86524 
L 57.878053 50.040902 
Q 57.878053 4.513916 49.789649 4.513916 
L 10.965311 4.513916 
Q 2.876908 4.513916 2.876908 50.040902 
L 2.876908 34.86524 
Q 2.876908 80.392226 10.965311 80.392226 
z
" style="fill:none;stroke:#ff0000;stroke-linejoin:miter;stroke-width:2;"/>
   </g>
   <g id="patch_2">
    <path clip-path="url(#pd18ec53d62)" d="M 0.72 84.186142 
L 60.034961 84.186142 
L 60.034961 0.72 
L 0.72 0.72 
z
" style="fill:none;stroke:#000000;stroke-linejoin:miter;stroke-width:2;"/>
   </g>
   <g id="text_1">
    <!-- 9 -->
    <g style="fill:#ff0000;" transform="translate(19.243105 37.504309)scale(0.35 -0.35)">
     <defs>
      <path d="M 10.984375 1.515625 
L 10.984375 10.5 
Q 14.703125 8.734375 18.5 7.8125 
Q 22.3125 6.890625 25.984375 6.890625 
Q 35.75 6.890625 40.890625 13.453125 
Q 46.046875 20.015625 46.78125 33.40625 
Q 43.953125 29.203125 39.59375 26.953125 
Q 35.25 24.703125 29.984375 24.703125 
Q 19.046875 24.703125 12.671875 31.3125 
Q 6.296875 37.9375 6.296875 49.421875 
Q 6.296875 60.640625 12.9375 67.421875 
Q 19.578125 74.21875 30.609375 74.21875 
Q 43.265625 74.21875 49.921875 64.515625 
Q 56.59375 54.828125 56.59375 36.375 
Q 56.59375 19.140625 48.40625 8.859375 
Q 40.234375 -1.421875 26.421875 -1.421875 
Q 22.703125 -1.421875 18.890625 -0.6875 
Q 15.09375 0.046875 10.984375 1.515625 
z
M 30.609375 32.421875 
Q 37.25 32.421875 41.125 36.953125 
Q 45.015625 41.5 45.015625 49.421875 
Q 45.015625 57.28125 41.125 61.84375 
Q 37.25 66.40625 30.609375 66.40625 
Q 23.96875 66.40625 20.09375 61.84375 
Q 16.21875 57.28125 16.21875 49.421875 
Q 16.21875 41.5 20.09375 36.953125 
Q 23.96875 32.421875 30.609375 32.421875 
z
" id="DejaVuSans-57"/>
     </defs>
     <use xlink:href="#DejaVuSans-57"/>
    </g>
   </g>
  </g>
 </g>
 <defs>
  <clipPath id="pd18ec53d62">
   <rect height="83.466142" width="59.314961" x="0.72" y="0.72"/>
  </clipPath>
 </defs>
</svg>
