<?xml version="1.0" encoding="utf-8" standalone="no"?>
<!DOCTYPE svg PUBLIC "-//W3C//DTD SVG 1.1//EN"
  "http://www.w3.org/Graphics/SVG/1.1/DTD/svg11.dtd">
<svg height="83.466142pt" version="1.1" viewBox="0 0 59.314961 83.466142" width="59.314961pt" xmlns="http://www.w3.org/2000/svg" xmlns:xlink="http://www.w3.org/1999/xlink">
 <metadata>
  <rdf:RDF xmlns:cc="http://creativecommons.org/ns#" xmlns:dc="http://purl.org/dc/elements/1.1/" xmlns:rdf="http://www.w3.org/1999/02/22-rdf-syntax-ns#">
   <cc:Work>
    <dc:type rdf:resource="http://purl.org/dc/dcmitype/StillImage"/>
    <dc:date>2021-04-13T10:30:49.396001</dc:date>
    <dc:format>image/svg+xml</dc:format>
    <dc:creator>
     <cc:Agent>
      <dc:title>Matplotlib v3.4.1, https://matplotlib.org/</dc:title>
     </cc:Agent>
    </dc:creator>
   </cc:Work>
  </rdf:RDF>
 </metadata>
 <defs>
  <style type="text/css">*{stroke-linecap:butt;stroke-linejoin:round;}</style>
 </defs>
 <g id="figure_1">
  <g id="axes_1">
   <g id="PathCollection_1">
    <defs>
     <path d="M 0 -17.67767 
L -3.968884 -5.4627 
L -16.812463 -5.4627 
L -6.421789 2.086566 
L -10.390673 14.301535 
L -0 6.752269 
L 10.390673 14.301535 
L 6.421789 2.086566 
L 16.812463 -5.4627 
L 3.968884 -5.4627 
z
" id="m70cce21339" style="stroke:#ff0000;"/>
    </defs>
    <g clip-path="url(#pfedb5b1eb1)">
     <use style="fill:#ff0000;stroke:#ff0000;" x="29.65748" xlink:href="#m70cce21339" y="62.599606"/>
    </g>
   </g>
   <g id="patch_1">
    <path clip-path="url(#pfedb5b1eb1)" d="M 10.245311 79.672226 
L 49.069649 79.672226 
Q 57.158053 79.672226 57.158053 34.14524 
L 57.158053 49.320902 
Q 57.158053 3.793916 49.069649 3.793916 
L 10.245311 3.793916 
Q 2.156908 3.793916 2.156908 49.320902 
L 2.156908 34.14524 
Q 2.156908 79.672226 10.245311 79.672226 
z
" style="fill:none;stroke:#ff0000;stroke-linejoin:miter;stroke-width:2;"/>
   </g>
   <g id="patch_2">
    <path clip-path="url(#pfedb5b1eb1)" d="M 0 83.466142 
L 59.314961 83.466142 
L 59.314961 0 
L 0 0 
z
" style="fill:none;stroke:#000000;stroke-linejoin:miter;stroke-width:2;"/>
   </g>
   <g id="text_1">
    <!-- 8 -->
    <g style="fill:#ff0000;" transform="translate(18.523105 36.784309)scale(0.35 -0.35)">
     <defs>
      <path d="M 2034 2216 
Q 1584 2216 1326 1975 
Q 1069 1734 1069 1313 
Q 1069 891 1326 650 
Q 1584 409 2034 409 
Q 2484 409 2743 651 
Q 3003 894 3003 1313 
Q 3003 1734 2745 1975 
Q 2488 2216 2034 2216 
z
M 1403 2484 
Q 997 2584 770 2862 
Q 544 3141 544 3541 
Q 544 4100 942 4425 
Q 1341 4750 2034 4750 
Q 2731 4750 3128 4425 
Q 3525 4100 3525 3541 
Q 3525 3141 3298 2862 
Q 3072 2584 2669 2484 
Q 3125 2378 3379 2068 
Q 3634 1759 3634 1313 
Q 3634 634 3220 271 
Q 2806 -91 2034 -91 
Q 1263 -91 848 271 
Q 434 634 434 1313 
Q 434 1759 690 2068 
Q 947 2378 1403 2484 
z
M 1172 3481 
Q 1172 3119 1398 2916 
Q 1625 2713 2034 2713 
Q 2441 2713 2670 2916 
Q 2900 3119 2900 3481 
Q 2900 3844 2670 4047 
Q 2441 4250 2034 4250 
Q 1625 4250 1398 4047 
Q 1172 3844 1172 3481 
z
" id="DejaVuSans-38" transform="scale(0.015625)"/>
     </defs>
     <use xlink:href="#DejaVuSans-38"/>
    </g>
   </g>
  </g>
 </g>
 <defs>
  <clipPath id="pfedb5b1eb1">
   <rect height="83.466142" width="59.314961" x="0" y="0"/>
  </clipPath>
 </defs>
</svg>
